<svg width="20" height="16" viewBox="0 0 20 16" fill="none" xmlns="http://www.w3.org/2000/svg">
<path d="M1 11.3846L5.76215 6.62246C5.95501 6.4296 6.18397 6.27661 6.43596 6.17223C6.68795 6.06786 6.95802 6.01414 7.23077 6.01414C7.50352 6.01414 7.77359 6.06786 8.02558 6.17223C8.27756 6.27661 8.50652 6.4296 8.69938 6.62246L13.4615 11.3846M12.0769 10L13.3775 8.69938C13.5704 8.50652 13.7994 8.35353 14.0513 8.24916C14.3033 8.14478 14.5734 8.09106 14.8462 8.09106C15.1189 8.09106 15.389 8.14478 15.641 8.24916C15.8929 8.35353 16.1219 8.50652 16.3148 8.69938L19 11.3846M2.38462 14.8462H17.6154C17.9826 14.8462 18.3348 14.7003 18.5945 14.4406C18.8541 14.1809 19 13.8288 19 13.4615V2.38462C19 2.01739 18.8541 1.66521 18.5945 1.40554C18.3348 1.14588 17.9826 1 17.6154 1H2.38462C2.01739 1 1.66521 1.14588 1.40554 1.40554C1.14588 1.66521 1 2.01739 1 2.38462V13.4615C1 13.8288 1.14588 14.1809 1.40554 14.4406C1.66521 14.7003 2.01739 14.8462 2.38462 14.8462ZM12.0769 4.46154H12.0843V4.46892H12.0769V4.46154ZM12.4231 4.46154C12.4231 4.55334 12.3866 4.64139 12.3217 4.70631C12.2568 4.77122 12.1687 4.80769 12.0769 4.80769C11.9851 4.80769 11.8971 4.77122 11.8322 4.70631C11.7672 4.64139 11.7308 4.55334 11.7308 4.46154C11.7308 4.36973 11.7672 4.28169 11.8322 4.21677C11.8971 4.15185 11.9851 4.11538 12.0769 4.11538C12.1687 4.11538 12.2568 4.15185 12.3217 4.21677C12.3866 4.28169 12.4231 4.36973 12.4231 4.46154Z" stroke="#4A4A4A" stroke-linecap="round" stroke-linejoin="round"/>
</svg>
