<svg width="20" height="15" viewBox="0 0 20 15" fill="none" xmlns="http://www.w3.org/2000/svg">
<path d="M8.05779 0.385777C8.31461 0.642599 8.43788 0.952926 8.42761 1.31676C8.41648 1.68059 8.2825 1.99091 8.02568 2.24774L4.39808 5.87534L18.7159 5.87534C19.0797 5.87534 19.3849 5.99862 19.6315 6.24517C19.8772 6.49086 20 6.79562 20 7.15945C20 7.52328 19.8772 7.82847 19.6315 8.07502C19.3849 8.32071 19.0797 8.44356 18.7159 8.44356L4.39808 8.44356L8.05779 12.1033C8.31461 12.3601 8.44302 12.6653 8.44302 13.0188C8.44302 13.3715 8.31461 13.6763 8.05779 13.9331C7.80096 14.1899 7.49577 14.3184 7.14222 14.3184C6.78951 14.3184 6.48475 14.1899 6.22793 13.9331L0.353132 8.05833C0.224722 7.92992 0.133547 7.79081 0.0796146 7.64099C0.0265388 7.49118 0 7.33067 0 7.15945C0 6.98824 0.0265388 6.82772 0.0796146 6.67791C0.133547 6.5281 0.224722 6.38899 0.353132 6.26058L6.26003 0.353675C6.49545 0.118255 6.78951 0.000542641 7.14222 0.000542641C7.49577 0.000542641 7.80096 0.128956 8.05779 0.385777Z" fill="#4A4A4A"/>
</svg>
