<svg width="17" height="17" viewBox="0 0 17 17" fill="none" xmlns="http://www.w3.org/2000/svg">
<path d="M15.9375 1.59001L11.6838 1.59003V0.53125C11.6838 0.237734 11.446 0 11.1525 0C10.859 0 10.6213 0.237734 10.6213 0.53125V1.58977H6.37128V0.53125C6.37128 0.237734 6.13355 0 5.84003 0C5.54652 0 5.30878 0.237734 5.30878 0.53125V1.58977H1.0625C0.475734 1.58977 0 2.0655 0 2.65227V15.9335C0 16.5203 0.475734 16.996 1.0625 16.996H15.9375C16.5243 16.996 17 16.5203 17 15.9335V2.65227C17 2.06575 16.5243 1.59001 15.9375 1.59001ZM15.9375 15.9335H1.0625V2.65227H5.30878V3.1875C5.30878 3.481 5.54652 3.71875 5.84003 3.71875C6.13355 3.71875 6.37128 3.481 6.37128 3.1875V2.65253H10.6213V3.18777C10.6213 3.48128 10.859 3.71902 11.1525 3.71902C11.446 3.71902 11.6838 3.48128 11.6838 3.18777V2.65253H15.9375V15.9335ZM12.2188 8.49626H13.2812C13.5745 8.49626 13.8125 8.25826 13.8125 7.96501V6.90251C13.8125 6.60926 13.5745 6.37126 13.2812 6.37126H12.2188C11.9255 6.37126 11.6875 6.60926 11.6875 6.90251V7.96501C11.6875 8.25826 11.9255 8.49626 12.2188 8.49626ZM12.2188 12.746H13.2812C13.5745 12.746 13.8125 12.5083 13.8125 12.2147V11.1522C13.8125 10.859 13.5745 10.621 13.2812 10.621H12.2188C11.9255 10.621 11.6875 10.859 11.6875 11.1522V12.2147C11.6875 12.5085 11.9255 12.746 12.2188 12.746ZM9.03125 10.621H7.96875C7.6755 10.621 7.4375 10.859 7.4375 11.1522V12.2147C7.4375 12.5083 7.6755 12.746 7.96875 12.746H9.03125C9.3245 12.746 9.5625 12.5083 9.5625 12.2147V11.1522C9.5625 10.8593 9.3245 10.621 9.03125 10.621ZM9.03125 6.37126H7.96875C7.6755 6.37126 7.4375 6.60926 7.4375 6.90251V7.96501C7.4375 8.25826 7.6755 8.49626 7.96875 8.49626H9.03125C9.3245 8.49626 9.5625 8.25826 9.5625 7.96501V6.90251C9.5625 6.609 9.3245 6.37126 9.03125 6.37126ZM4.78125 6.37126H3.71875C3.4255 6.37126 3.1875 6.60926 3.1875 6.90251V7.96501C3.1875 8.25826 3.4255 8.49626 3.71875 8.49626H4.78125C5.0745 8.49626 5.3125 8.25826 5.3125 7.96501V6.90251C5.3125 6.609 5.0745 6.37126 4.78125 6.37126ZM4.78125 10.621H3.71875C3.4255 10.621 3.1875 10.859 3.1875 11.1522V12.2147C3.1875 12.5083 3.4255 12.746 3.71875 12.746H4.78125C5.0745 12.746 5.3125 12.5083 5.3125 12.2147V11.1522C5.3125 10.8593 5.0745 10.621 4.78125 10.621Z" fill="#4A4A4A"/>
</svg>
